<?xml version="1.0" encoding="utf-8"?>
<!-- Generator: Adobe Illustrator 16.0.0, SVG Export Plug-In . SVG Version: 6.00 Build 0)  -->
<!DOCTYPE svg PUBLIC "-//W3C//DTD SVG 1.1//EN" "http://www.w3.org/Graphics/SVG/1.1/DTD/svg11.dtd">
<svg version="1.1" id="Layer_1" xmlns="http://www.w3.org/2000/svg" xmlns:xlink="http://www.w3.org/1999/xlink" x="0px" y="0px"
	 width="100px" height="100px" viewBox="0 0 100 100" enable-background="new 0 0 100 100" xml:space="preserve">
<path fill="#383838" d="M87.401,1H12.433C6.395,1,1,5.677,1,11.446v76.107C1,93.323,6.395,98,12.433,98h74.968
	C93.439,98,98,93.323,98,87.554V11.446C98,5.677,93.439,1,87.401,1z M86.279,92.316c-0.069-0.281-0.274-0.689-0.588-1.199
	c-0.103-1.001-0.482-2.508-0.413-1.93c0.049,0.407-0.132,0.673-0.316,0.835c-0.565-0.801-1.289-1.746-2.13-2.797
	c-0.53,0.364-1.11,0.558-1.174-0.277c-0.047-0.618-0.319-1.314-0.632-1.932c-0.339-0.405-0.687-0.82-1.045-1.243
	c-0.482,0.615-1.09,1.252-0.896,0.27c0.099-0.496,0.029-0.997-0.11-1.451c-0.846-0.986-1.729-2.006-2.634-3.037
	c-0.233-1.14-1.174-2.137-1.639-2.943c-0.547-0.953,0.549-3.645,0-3.264c-0.547,0.382-0.666,1.167-0.881,2.621
	c-0.03,0.212-0.076,0.406-0.129,0.587c-0.007-0.009-0.016-0.019-0.023-0.028c-0.139,0.383-0.324,0.86-0.483,1.135
	c-0.043,0.063-0.084,0.123-0.122,0.173c-0.102,0.104-0.176,0.053-0.194-0.271c-0.039-0.688-0.763-2.234-1.617-3.741
	c-1.255-1.397-2.476-2.75-3.61-4.005c-0.58-0.044-1.052,0.122-1.347-0.281c-0.36-0.491-0.821-1.69-1.074-2.393
	c-0.143-0.156-0.281-0.311-0.417-0.46c-0.595-0.179-1.141-0.28-1.177-0.387c-0.029-0.091,0.059-0.424,0.119-0.785
	c-0.284-0.315-0.551-0.611-0.795-0.885c-0.354,0.342-0.577,0.922-0.849,0.432c-0.221-0.401-0.313-1.194-0.353-1.791
	c-0.279-0.321-0.474-0.556-0.561-0.678c-1.271-1.78-16.513-9.847-17.657-9.656c-1.143,0.191-4.51,2.605-4.892,2.859
	c-0.381,0.253-0.825,0.762-0.825,0.762S23.841,74.023,22.635,75.293c-1.168,1.23-2.517,2.105-2.602,2.158
	c0.024-0.025,1.712-2.305,2.46-3.316c0.747-1.011,4.891-6.649,4.968-6.846c0.127-0.316-0.381-0.316-0.381-0.824
	c0-0.51,0.762-1.906,0.89-2.478c0.128-0.572-0.191-1.144-0.191-1.144l-0.571,0.318c0,0-0.191-1.018-0.254-0.699
	c-0.065,0.318-1.589,0.824-1.399,0.509c0.191-0.318,0.319-1.208,0.319-1.208l-0.953,0.064l-0.191-0.763c0,0-3.43,2.668-5.398,3.431
	c-1.971,0.763-8.449,5.526-8.194,5.017c0.254-0.508,11.052-9.209,11.052-9.209s7.875-5.844,9.082-7.05
	c1.208-1.209,3.939-5.209,4.32-6.098c0.38-0.89,1.08-4.829-1.271-6.163c-2.35-1.334-2.668-11.559-3.556-16.07
	c-0.05-0.25-0.276-0.689-0.628-1.258c-0.185-0.084-0.417-0.179-0.714-0.29c-0.497-0.183-0.76-0.276-0.894-0.318l0.428-1.148
	c-0.684-0.965-1.504-2.063-2.357-3.178c-0.231-0.069-0.487-0.169-0.703-0.309c-0.548-0.357-1.405-0.596-1.405-0.882
	c0-0.285,0.119-0.5-0.12-0.976c-0.238-0.477-0.977-0.834-1.095-1.12c-0.062-0.147,0.017-0.505,0.106-0.816
	c-0.269-0.338-0.528-0.661-0.769-0.96c0.205-0.192,0.564-0.597,0.282-0.844c-0.278-0.243-0.897-0.296-1.213-0.307
	c-0.544-0.669-0.881-1.079-0.89-1.089l0.009,0.009c0,0,0.259-0.256,0.354-0.376c0.095-0.119,0.071-0.238,0-0.333
	s-1.373-0.444-1.373-0.444c-0.216-0.244-0.417-0.47-0.602-0.676c-0.005-0.005-0.007-0.009-0.011-0.014l-0.234,0.013L19,9.108v-0.19
	l-0.927-0.271c-0.198-0.22-0.202-0.356-0.23-0.388c-0.455-0.517-0.661-0.846-0.669-0.928c-0.064-0.572,0.285-0.318,2.128-0.318
	c1.84,0,10.05,1.905,12.973,2.605c2.921,0.697,11.504,4.192,11.504,4.192s3.561,2.096,3.877,4.508
	c0.318,2.414-0.124,1.971-0.569,3.114c-0.445,1.143,0.001,3.43,0.001,4.699c0,1.27,2.542,5.526,3.811,6.034
	c1.271,0.509,2.287,0.253,3.559-0.38c1.271-0.635,5.97-2.415,9.02-1.397c3.048,1.016,4.447,4.445,4.447,4.445
	s2.286,0.634,3.555,1.525c1.271,0.89,3.559,3.302,2.796,3.107c-0.763-0.196-3.683-2.092-7.494-2.346
	c-3.466-0.23-8.195,4.287-7.306,5.018c0.889,0.729,8.574,3.176,8.574,3.176s0.827,0.063,1.589,0.443
	c0.763,0.381,1.144,1.397,1.144,1.397s3.812,5.21,4.445,5.59c0.635,0.382,5.018,8.129,5.146,8.892
	c0.128,0.762,2.286,6.035,4.002,10.546c1.714,4.508,2.921,15.116,2.921,15.116S87.169,95.937,86.279,92.316z"/>
</svg>
